<svg xmlns="http://www.w3.org/2000/svg" viewBox="0 0 90 90" width="90" height="90">
  <rect width="90" height="90" fill="#2a1f33"/>
  <path fill="#fff4e2" d="M14 4H76A10 10 0 0 1 86 14V76A10 10 0 0 1 76 86H14A10 10 0 0 1 4 76V14A10 10 0 0 1 14 4Z"/>
  <path transform="translate(13 13)" fill="#2a1f33" fill-rule="evenodd" d="M11.5 52H34.5A3.5 3.5 0 0 1 38 55.5V55.5A3.5 3.5 0 0 1 34.5 59H11.5A3.5 3.5 0 0 1 8 55.5V55.5A3.5 3.5 0 0 1 11.5 52Z"/>
  <path transform="translate(13 13)" fill="#2a1f33" fill-rule="evenodd" d="M19.78 54.38L10.78 33.38A3.5 3.5 0 0 1 17.22 30.62L26.22 51.62A3.5 3.5 0 0 1 19.78 54.38Z"/>
  <path transform="translate(13 13)" fill="#2a1f33" fill-rule="evenodd" d="M8.5 32A5.5 5.5 0 1 0 19.5 32A5.5 5.5 0 1 0 8.5 32Z"/>
  <path transform="translate(13 13)" fill="#2a1f33" fill-rule="evenodd" d="M11.78 29.29L33.78 11.29A3.5 3.5 0 0 1 38.22 16.71L16.22 34.71A3.5 3.5 0 0 1 11.78 29.29Z"/>
  <path transform="translate(13 13)" fill="#2a1f33" fill-rule="evenodd" d="M36 11.17Q38.12 9.05 40.9 10.18L54.43 15.7Q57.21 16.83 55.09 18.95L40.95 33.09Q38.83 35.21 37.7 32.43L32.18 18.9Q31.05 16.12 33.17 14Z"/>
</svg>
