<!-- generated from pages/room-signs/systems/b/icons/office.svg by tools/tokens/build.js: #2a1f33 written as #ffffff, for Godot's tint -->
<svg xmlns="http://www.w3.org/2000/svg" width="48" height="48" viewBox="0 0 48 48"><path d="M8,38 L24,38 A3,3 0 0 1 27,41 L27,41 A3,3 0 0 1 24,44 L8,44 A3,3 0 0 1 5,41 L5,41 A3,3 0 0 1 8,38 Z" fill="#ffffff"/><path d="M15,39 L10,25 L23,14" fill="none" stroke="#ffffff" stroke-width="6" stroke-linecap="round" stroke-linejoin="round"/><path d="M28.37,10.22 L38.75,14.24 A2.5,2.5 0 0 1 39.77,18.17 L31.77,27.78 A2.5,2.5 0 0 1 27.7,27.45 L22.3,18.35 A2.5,2.5 0 0 1 22.37,15.69 L25.39,11.17 A2.5,2.5 0 0 1 28.37,10.22 Z" fill="#ffffff"/></svg>
