<!-- own work, prime-game-ui, licence: own work -->
<svg xmlns="http://www.w3.org/2000/svg" viewBox="0 0 320 240" width="320" height="240">
  <defs>
    <filter id="d2-w" filterUnits="userSpaceOnUse" x="0" y="0" width="320" height="240">
      <feTurbulence type="fractalNoise" baseFrequency="0.03" numOctaves="2" seed="5" result="n"/>
      <feDisplacementMap in="SourceGraphic" in2="n" scale="4" xChannelSelector="R" yChannelSelector="G"/>
    </filter>
    <symbol id="d2-f" viewBox="0 0 48 48">
      <path fill="#1f2433" fill-rule="evenodd" d="M17.5,4 L30.5,4 A2.5,2.5 0 0 1 33,6.5 L33,7.5 A2.5,2.5 0 0 1 30.5,10 L17.5,10 A2.5,2.5 0 0 1 15,7.5 L15,6.5 A2.5,2.5 0 0 1 17.5,4 Z M19,8 L29,8 L29,17.45 A2,2 0 0 0 29.29,18.48 L40.43,37.05 A4,4 0 0 1 41,39.11 L41,41 A3,3 0 0 1 38,44 L10,44 A3,3 0 0 1 7,41 L7,39.11 A4,4 0 0 1 7.57,37.05 L18.71,18.48 A2,2 0 0 0 19,17.450 L19,8 Z M15.5,36 A3.5,3.5 0 1 0 22.5,36 A3.5,3.5 0 1 0 15.5,36 Z M25,29 A3,3 0 1 0 31,29 A3,3 0 1 0 25,29 Z"/>
    </symbol>
    <style>
      .k{fill:none;stroke:#1f2433;stroke-width:6;stroke-linecap:round;stroke-linejoin:round}
      .t{stroke-width:4}
      .w{fill:#fff;stroke:#1f2433;stroke-width:5;stroke-linejoin:round}
      .a{fill:#e8a33a;stroke:#1f2433;stroke-width:4;stroke-linejoin:round}
      .i{fill:#1f2433}
    </style>
  </defs>
  <g filter="url(#d2-w)">
    <ellipse cx="78" cy="213" rx="24" ry="4" fill="#1f2433" opacity=".12"/>
    <path class="k t" d="M16 212C96 209 210 214 304 211"/>
    <!-- figure, holding the box up to read it -->
    <path class="k" d="M78 152L62 211M78 152L94 211"/>
    <path class="k" d="M78 152L80 104"/>
    <rect class="w" x="100" y="112" width="50" height="40" rx="3"/><path class="k t" d="M125 112v10"/>
    <rect class="a" x="119" y="121" width="26" height="26" rx="4" style="stroke-width:6"/>
    <use href="#d2-f" x="123" y="125" width="18" height="18"/>
    <path class="k" d="M80 114L101 121M80 117Q88 142 101 141"/>
    <circle class="w" cx="83" cy="84" r="19"/>
    <circle class="i" cx="90" cy="88" r="2.8"/><circle class="i" cx="98" cy="88" r="2.8"/>
    <path class="k t" d="M87 76l7-3"/>
    <path class="k t" d="M91 96h5"/>
    <!-- zoom on the stamp -->
    <path class="k t" d="M145 121L194 54M145 147L200 139"/>
    <circle class="w" cx="238" cy="92" r="60"/>
    <rect class="a" x="206" y="60" width="64" height="64" rx="11" style="stroke-width:5"/>
    <use href="#d2-f" x="214" y="68" width="48" height="48"/>
    <!-- a-ha -->
    <path class="k" d="M56 30v14"/><circle class="i" cx="56" cy="54" r="3.4"/>
  </g>
</svg>
