<!-- own work, prime-game-ui, licence: own work -->
<svg xmlns="http://www.w3.org/2000/svg" width="320" height="240" viewBox="0 0 320 240">
  <line x1="16" y1="216" x2="304" y2="216" fill="none" stroke="#2a1f33" stroke-width="5" stroke-linecap="round" stroke-linejoin="round"/>
  <path d="M234.4,80.1 L228.4,80.1 M237.7,69.8 L232.9,66.2 M246.6,63.4 L244.7,57.7 M257.4,63.4 L259.3,57.7 M266.3,69.8 L271.1,66.2 M269.6,80.1 L275.6,80.1" fill="none" stroke="#2a1f33" stroke-width="5" stroke-linecap="round" stroke-linejoin="round"/>
  <circle cx="252" cy="80.1" r="8.6" fill="#ffc23a" stroke="#2a1f33" stroke-width="5" stroke-linejoin="round"/>
  <rect x="246.8" y="86.8" width="10.5" height="7.5" rx="2" fill="#fff4e2" stroke="#2a1f33" stroke-width="5" stroke-linejoin="round"/>
  <rect x="237" y="93.5" width="30" height="45" rx="6" fill="#fff4e2" stroke="#2a1f33" stroke-width="5" stroke-linejoin="round"/>
  <rect x="249" y="103.3" width="6" height="25.5" rx="3" fill="#2a1f33"/>
  <path d="M255.5,117.9 L263.6,102.6 A4,4 0 0 0 256.6,98.9 L248.5,114.1 A4,4 0 0 0 255.5,117.9 Z" fill="#2a1f33"/>
  <circle cx="260.1" cy="100.8" r="8.6" fill="#ff8466" stroke="#2a1f33" stroke-width="5" stroke-linejoin="round"/>
  <circle cx="285" cy="120.1" r="8.6" fill="#2a1f33" stroke="#2a1f33" stroke-width="5" stroke-linejoin="round" fill-opacity="0.5"/>
  <rect x="279.8" y="126.8" width="10.5" height="7.5" rx="2" fill="#fff4e2" stroke="#2a1f33" stroke-width="5" stroke-linejoin="round"/>
  <rect x="270" y="133.5" width="30" height="45" rx="6" fill="#fff4e2" stroke="#2a1f33" stroke-width="5" stroke-linejoin="round"/>
  <rect x="282" y="143.3" width="6" height="25.5" rx="3" fill="#2a1f33"/>
  <path d="M281.5,157.9 L289.6,173.1 A4,4 0 0 0 296.6,169.4 L288.5,154.1 A4,4 0 0 0 281.5,157.9 Z" fill="#2a1f33"/>
  <circle cx="293.1" cy="171.2" r="8.6" fill="#ff8466" stroke="#2a1f33" stroke-width="5" stroke-linejoin="round"/>
  <path d="M151.5,85.5 L143.5,85.5 M155.4,73.5 L148.9,68.7 M165.7,66 L163.2,58.4 M178.3,66 L180.8,58.4 M188.6,73.5 L195.1,68.7 M192.5,85.5 L200.5,85.5" fill="none" stroke="#2a1f33" stroke-width="5" stroke-linecap="round" stroke-linejoin="round"/>
  <circle cx="172" cy="85.5" r="11.5" fill="#ffc23a" stroke="#2a1f33" stroke-width="5" stroke-linejoin="round"/>
  <rect x="165" y="95" width="14" height="10" rx="2" fill="#fff4e2" stroke="#2a1f33" stroke-width="5" stroke-linejoin="round"/>
  <rect x="152" y="104" width="40" height="60" rx="6" fill="#fff4e2" stroke="#2a1f33" stroke-width="5" stroke-linejoin="round"/>
  <rect x="169" y="117" width="6" height="34" rx="3" fill="#2a1f33"/>
  <path d="M175.5,135.9 L186.3,115.6 A4,4 0 0 0 179.3,111.8 L168.5,132.1 A4,4 0 0 0 175.5,135.9 Z" fill="#2a1f33"/>
  <circle cx="182.8" cy="113.7" r="11.5" fill="#ff8466" stroke="#2a1f33" stroke-width="5" stroke-linejoin="round"/>
  <path d="M196.6,170.5 C218.8,155.5 229.9,132.6 212.1,112.7" fill="none" stroke="#2a1f33" stroke-width="6" stroke-linecap="round" stroke-linejoin="round"/>
  <polygon points="204.7,104.6 222.2,109 207.3,122.4" fill="#2a1f33" stroke="#2a1f33" stroke-width="5" stroke-linejoin="round"/>
  <ellipse cx="108" cy="216" rx="34" ry="6" fill="#2a1f33" fill-opacity="0.1"/>
  <polyline points="96,105 77.9,133.8 98,156" fill="none" stroke="#2a1f33" stroke-width="20" stroke-linecap="round" stroke-linejoin="round"/>
  <polyline points="96,105 77.9,133.8 98,156" fill="none" stroke="#78ada5" stroke-width="10" stroke-linecap="round" stroke-linejoin="round"/>
  <circle cx="98" cy="156" r="6.5" fill="#e6c3ad" stroke="#2a1f33" stroke-width="5" stroke-linejoin="round"/>
  <polyline points="100,146 100.5,177 101,208" fill="none" stroke="#2a1f33" stroke-width="21" stroke-linecap="round" stroke-linejoin="round"/>
  <polyline points="100,146 100.5,177 101,208" fill="none" stroke="#5d6f86" stroke-width="11" stroke-linecap="round" stroke-linejoin="round"/>
  <rect x="93" y="206" width="24" height="10" rx="5" fill="#2a1f33" stroke="#2a1f33" stroke-width="5" stroke-linejoin="round"/>
  <polyline points="116,146 116.5,177 117,208" fill="none" stroke="#2a1f33" stroke-width="21" stroke-linecap="round" stroke-linejoin="round"/>
  <polyline points="116,146 116.5,177 117,208" fill="none" stroke="#5d6f86" stroke-width="11" stroke-linecap="round" stroke-linejoin="round"/>
  <rect x="109" y="206" width="24" height="10" rx="5" fill="#2a1f33" stroke="#2a1f33" stroke-width="5" stroke-linejoin="round"/>
  <path d="M114.5,102 L114.5,82 A6.5,6.5 0 0 0 101.5,82 L101.5,102 A6.5,6.5 0 0 0 114.5,102 Z" fill="#e6c3ad" stroke="#2a1f33" stroke-width="5" stroke-linejoin="round"/>
  <rect x="90" y="98" width="36" height="52" rx="12" fill="#78ada5" stroke="#2a1f33" stroke-width="5" stroke-linejoin="round"/>
  <g transform="translate(108 68)">
    <path d="M-17.8,-22.8 Q-21.5,-27.1 -17.4,-35.1 Q-8.6,-33.3 -7.5,-27.8 Z" fill="#2a1f33" stroke="#2a1f33" stroke-width="5" stroke-linejoin="round"/>
    <path d="M-11.5,-28.7 Q-13,-35.4 -5.2,-42 Q2.7,-35.4 1.1,-28.7 Z" fill="#2a1f33" stroke="#2a1f33" stroke-width="5" stroke-linejoin="round"/>
    <path d="M-2.2,-32.1 Q-0.4,-39.2 9.8,-42.2 Q13.7,-32.3 9.1,-26.6 Z" fill="#2a1f33" stroke="#2a1f33" stroke-width="5" stroke-linejoin="round"/>
    <path d="M8,-31.6 Q12.3,-36.7 21.9,-35.2 Q21.1,-25.5 15,-22.5 Z" fill="#2a1f33" stroke="#2a1f33" stroke-width="5" stroke-linejoin="round"/>
    <path d="M0,-25.3 C12.6,-25.3 21.8,-16.1 21.8,-3.4 C21.8,10.9 11.5,23 0,23 C-11.5,23 -21.8,10.9 -21.8,-3.4 C-21.8,-16.1 -12.6,-25.3 0,-25.3 Z" fill="#e6c3ad" stroke="#2a1f33" stroke-width="5" stroke-linejoin="round"/>
    <path d="M-22.4,-4.6 C-24.1,-18.4 -13.8,-30.5 0,-30.5 C9.2,-30.5 16.1,-28.7 20.1,-24.1 C13.8,-26.4 5.8,-26.7 -1.1,-26 C-9.2,-24.8 -13.2,-16.1 -14.4,-4.6 C-17.2,-2.9 -20.1,-2.9 -22.4,-4.6 Z" fill="#2a1f33" stroke="#2a1f33" stroke-width="5" stroke-linejoin="round"/>
    <circle cx="-16.7" cy="4" r="5.3" fill="#e6c3ad" stroke="#2a1f33" stroke-width="5" stroke-linejoin="round"/>
    <ellipse cx="1.5" cy="-2.5" rx="5.3" ry="7.2" fill="#fff4e2" stroke="#2a1f33" stroke-width="5" stroke-linejoin="round"/>
    <ellipse cx="15" cy="-2.5" rx="5.8" ry="7.2" fill="#fff4e2" stroke="#2a1f33" stroke-width="5" stroke-linejoin="round"/>
    <rect x="1" y="-7.1" width="4.4" height="7.2" rx="2.2" fill="#2a1f33"/>
    <rect x="14.5" y="-7.1" width="4.4" height="7.2" rx="2.2" fill="#2a1f33"/>
    <path d="M-1.9,-19.5 L4.9,-19.5 M18.4,-19.5 L11.6,-19.5" fill="none" stroke="#2a1f33" stroke-width="5" stroke-linecap="round" stroke-linejoin="round"/>
    <circle cx="19" cy="6" r="6.2" fill="#f1cbbd" stroke="#2a1f33" stroke-width="5" stroke-linejoin="round"/>
    <path d="M3,15 Q7.5,18.3 12,15" fill="none" stroke="#2a1f33" stroke-width="5" stroke-linecap="round" stroke-linejoin="round"/>
  </g>
  <polyline points="120,105 146.1,126.8 176,124" fill="none" stroke="#2a1f33" stroke-width="20" stroke-linecap="round" stroke-linejoin="round"/>
  <polyline points="120,105 146.1,126.8 176,124" fill="none" stroke="#78ada5" stroke-width="10" stroke-linecap="round" stroke-linejoin="round"/>
  <ellipse cx="176" cy="124" rx="10" ry="5.5" fill="#e6c3ad" stroke="#2a1f33" stroke-width="5" stroke-linejoin="round" transform="rotate(-24 176 124)"/>
</svg>
